<?xml version="1.0" encoding="UTF-8"?>
<svg id="b" data-name="Layer 2" xmlns="http://www.w3.org/2000/svg" width="206.231" height="37.29" viewBox="0 0 206.231 37.29">
  <g id="c" data-name="Layer 1">
    <g>
      <path d="M10.905,37.29V13.811H0v-4.858h27.155v4.858h-10.905v23.479h-5.344Z"/>
      <path d="M52.812,37.29V8.954h9.918l4.898,24.693h.729l4.898-24.693h9.918v28.336h-5.181V12.88h-.729l-4.858,24.41h-8.824l-4.858-24.41h-.729v24.41h-5.182Z"/>
      <path d="M88.515,37.29V8.954h9.918l4.898,24.693h.729l4.898-24.693h9.918v28.336h-5.181V12.88h-.729l-4.858,24.41h-8.824l-4.858-24.41h-.729v24.41h-5.182Z"/>
      <path d="M124.218,37.29V8.954h5.344v28.336h-5.344Z"/>
      <path d="M134.905,37.29V8.954h10.161l5.626,24.693h.729V8.954h5.262v28.336h-10.16l-5.627-24.693h-.729v24.693h-5.262Z"/>
      <path d="M162.027,37.29V8.954h18.216v4.858h-12.873v6.76h11.739v4.858h-11.739v7.003h13.116v4.858h-18.459Z"/>
      <path d="M184.452,37.29V8.954h10.161l5.626,24.693h.729V8.954h5.262v28.336h-10.16l-5.627-24.693h-.729v24.693h-5.262Z"/>
      <circle cx="13.818" cy="3.091" r="3.091"/>
      <polygon points="41.964 8.954 32.653 8.954 25.205 37.29 30.71 37.29 32.248 31.056 33.504 26.117 36.944 12.314 37.673 12.314 41.114 26.117 42.369 31.056 43.907 37.29 49.412 37.29 41.964 8.954"/>
    </g>
  </g>
</svg>