<?xml version="1.0" encoding="UTF-8"?>
<svg id="b" data-name="Layer 2" xmlns="http://www.w3.org/2000/svg" width="397.355" height="37.887" viewBox="0 0 397.355 37.887">
  <g id="c" data-name="Layer 1">
    <g>
      <g>
        <path d="M10.905,37.29V13.811H0v-4.858h27.155v4.858h-10.905v23.479h-5.344Z" fill="#fff"/>
        <path d="M52.812,37.29V8.954h9.918l4.898,24.693h.729l4.898-24.693h9.918v28.336h-5.181V12.88h-.729l-4.858,24.41h-8.824l-4.858-24.41h-.729v24.41h-5.182Z" fill="#fff"/>
        <path d="M88.515,37.29V8.954h9.918l4.898,24.693h.729l4.898-24.693h9.918v28.336h-5.181V12.88h-.729l-4.858,24.41h-8.824l-4.858-24.41h-.729v24.41h-5.182Z" fill="#fff"/>
        <path d="M124.218,37.29V8.954h5.344v28.336h-5.344Z" fill="#fff"/>
        <path d="M134.905,37.29V8.954h10.161l5.626,24.693h.729V8.954h5.262v28.336h-10.16l-5.627-24.693h-.729v24.693h-5.262Z" fill="#fff"/>
        <path d="M162.027,37.29V8.954h18.216v4.858h-12.873v6.76h11.739v4.858h-11.739v7.003h13.116v4.858h-18.459Z" fill="#fff"/>
        <path d="M184.452,37.29V8.954h10.161l5.626,24.693h.729V8.954h5.262v28.336h-10.16l-5.627-24.693h-.729v24.693h-5.262Z" fill="#fff"/>
        <circle cx="13.818" cy="3.091" r="3.091" fill="#fff"/>
        <polygon points="41.964 8.954 32.653 8.954 25.205 37.29 30.71 37.29 32.248 31.056 33.504 26.117 36.944 12.314 37.673 12.314 41.114 26.117 42.369 31.056 43.907 37.29 49.412 37.29 41.964 8.954" fill="#fff"/>
      </g>
      <g>
        <path d="M228.675,37.319V8.963h5.347v11.262h.729l9.195-11.262h6.847l-11.829,13.976,12.234,14.381h-7.049l-9.398-11.505h-.729v11.505h-5.347Z" fill="#fff"/>
        <path d="M263.837,37.887c-3.565,0-6.4-.979-8.507-2.938-2.106-1.957-3.16-4.76-3.16-8.405v-6.806c0-3.646,1.054-6.447,3.16-8.406,2.106-1.958,4.941-2.937,8.507-2.937s6.4.979,8.507,2.937c2.106,1.958,3.16,4.76,3.16,8.406v6.806c0,3.646-1.054,6.448-3.16,8.405-2.106,1.959-4.942,2.938-8.507,2.938ZM263.837,33.106c1.998,0,3.551-.58,4.658-1.742,1.107-1.161,1.661-2.714,1.661-4.658v-7.13c0-1.944-.554-3.497-1.661-4.658s-2.66-1.742-4.658-1.742c-1.972,0-3.519.581-4.639,1.742-1.121,1.161-1.681,2.714-1.681,4.658v7.13c0,1.944.56,3.497,1.681,4.658,1.12,1.162,2.667,1.742,4.639,1.742Z" fill="#fff"/>
        <path d="M280.203,37.319V8.963h10.168l5.631,24.711h.729V8.963h5.267v28.356h-10.168l-5.631-24.711h-.729v24.711h-5.266Z" fill="#fff"/>
        <path d="M317.188,37.887c-2.188,0-4.119-.392-5.793-1.175-1.675-.783-2.984-1.904-3.93-3.362-.945-1.459-1.418-3.214-1.418-5.267v-1.134h5.267v1.134c0,1.701.526,2.978,1.58,3.828,1.053.851,2.484,1.276,4.294,1.276,1.836,0,3.206-.364,4.111-1.094.904-.729,1.357-1.661,1.357-2.795,0-.783-.223-1.418-.669-1.904-.445-.486-1.094-.884-1.944-1.195-.851-.31-1.884-.601-3.099-.871l-.932-.202c-1.944-.432-3.612-.979-5.003-1.641-1.392-.661-2.458-1.532-3.2-2.613-.743-1.079-1.114-2.484-1.114-4.213s.411-3.206,1.235-4.436c.824-1.229,1.985-2.173,3.484-2.835,1.499-.662,3.261-.993,5.286-.993s3.828.344,5.408,1.033c1.58.688,2.821,1.715,3.727,3.079.904,1.364,1.357,3.073,1.357,5.125v1.215h-5.267v-1.215c0-1.08-.209-1.951-.628-2.612-.419-.662-1.02-1.148-1.803-1.459-.783-.31-1.715-.466-2.795-.466-1.62,0-2.815.304-3.585.912-.77.607-1.154,1.438-1.154,2.491,0,.703.182,1.297.547,1.783.364.485.911.891,1.641,1.215.729.324,1.66.607,2.795.851l.932.203c2.025.432,3.788.985,5.286,1.66,1.499.676,2.667,1.567,3.505,2.674.836,1.107,1.255,2.525,1.255,4.254s-.438,3.247-1.316,4.557c-.878,1.311-2.12,2.337-3.727,3.079-1.607.742-3.504,1.114-5.691,1.114Z" fill="#fff"/>
        <path d="M342.83,37.887c-2.323,0-4.314-.426-5.976-1.276-1.66-.851-2.931-2.065-3.808-3.646-.878-1.58-1.316-3.45-1.316-5.61V8.963h5.347v18.553c0,1.729.493,3.093,1.479,4.092.985,1,2.41,1.499,4.273,1.499s3.287-.499,4.273-1.499c.985-.999,1.479-2.362,1.479-4.092V8.963h5.348v18.392c0,2.16-.439,4.03-1.316,5.61-.878,1.58-2.147,2.795-3.809,3.646-1.66.851-3.652,1.276-5.975,1.276Z" fill="#fff"/>
        <path d="M359.115,37.319V8.963h5.347v23.495h12.963v4.861h-18.31Z" fill="#fff"/>
        <path d="M383.744,37.319V13.824h-8.264v-4.861h21.875v4.861h-8.265v23.496h-5.347Z" fill="#fff"/>
      </g>
    </g>
  </g>
</svg>