<?xml version="1.0" standalone="no"?>
<!DOCTYPE svg PUBLIC "-//W3C//DTD SVG 20010904//EN"
 "http://www.w3.org/TR/2001/REC-SVG-20010904/DTD/svg10.dtd">
<svg version="1.0" xmlns="http://www.w3.org/2000/svg"
 width="260.000000pt" height="260.000000pt" viewBox="0 0 260.000000 260.000000"
 preserveAspectRatio="xMidYMid meet">
<metadata>
Created by potrace 1.14, written by Peter Selinger 2001-2017
</metadata>
<g transform="translate(0.000000,260.000000) scale(0.100000,-0.100000)"
fill="#000000" stroke="none">
<path d="M1132 2590 c-301 -43 -565 -179 -775 -400 -172 -181 -278 -384 -333
-641 -26 -118 -26 -380 0 -498 59 -273 168 -474 360 -666 195 -194 395 -302
667 -361 118 -26 380 -26 498 0 273 59 474 167 667 360 193 193 301 394 360
667 14 62 18 127 18 249 0 122 -4 187 -18 249 -59 273 -167 474 -360 667 -190
189 -384 296 -646 355 -98 22 -340 33 -438 19z m-116 -300 l12 -39 -52 -17
c-254 -83 -476 -296 -581 -559 -97 -242 -83 -553 35 -786 67 -131 209 -290
333 -372 79 -52 192 -104 285 -129 65 -18 104 -22 247 -22 143 0 182 4 247 22
161 44 295 121 420 240 190 181 283 389 295 657 6 148 -13 266 -62 390 -106
263 -327 476 -582 559 l-52 17 11 32 c5 18 11 38 14 45 2 9 21 6 69 -13 338
-127 580 -397 668 -745 18 -70 21 -114 21 -250 0 -146 -3 -176 -26 -262 -109
-402 -425 -696 -831 -773 -102 -19 -282 -19 -384 0 -406 77 -722 371 -831 773
-23 86 -26 116 -26 262 0 136 3 180 21 250 88 347 330 618 665 744 35 13 65
22 68 19 2 -2 10 -22 16 -43z m351 39 c68 -25 116 -97 116 -174 0 -126 -113
-218 -230 -186 -93 24 -146 92 -146 186 0 75 47 148 113 174 34 13 112 13 147
0z m533 -689 l0 -190 -205 0 -205 0 0 -410 0 -410 -195 0 -195 0 0 410 0 410
-205 0 -205 0 0 190 0 190 605 0 605 0 0 -190z"/>
</g>
</svg>
