<?xml version="1.0" encoding="UTF-8"?>
<svg id="Layer_1" xmlns="http://www.w3.org/2000/svg" version="1.1" viewBox="0 0 96.1 94.4">
  <!-- Generator: Adobe Illustrator 29.3.1, SVG Export Plug-In . SVG Version: 2.1.0 Build 151)  -->
  <defs>
    <style>
      .st0 {
        fill: #f2f2f2;
      }
    </style>
  </defs>
  <polygon class="st0" points="75.4 23.2 56.8 23.2 39.3 23.2 20.6 23.2 20.6 40.7 39.3 40.7 39.3 78 56.8 78 56.8 40.7 75.4 40.7 75.4 23.2"/>
  <path class="st0" d="M48,0h0c4.8,0,8.7,3.9,8.7,8.7h0c0,4.8-3.9,8.7-8.7,8.7h0c-4.8,0-8.7-3.9-8.7-8.7h0c0-4.8,3.9-8.7,8.7-8.7Z"/>
  <path class="st0" d="M48,94.5c-8,0-16-2-23.2-6-11.2-6.2-19.4-16.4-22.9-28.8C-1.7,47.3-.2,34.4,6,23.1S22.4,3.8,34.8.2l1.2,4.1c-11.2,3.2-20.6,10.6-26.2,20.9-5.7,10.2-7,22.1-3.8,33.3s10.6,20.6,20.9,26.2c10.2,5.7,22.1,7,33.3,3.8,11.2-3.2,20.6-10.6,26.2-20.9,5.7-10.2,7-22.1,3.8-33.3-4.2-14.6-15.4-25.8-30-30l1.2-4.1c16,4.6,28.3,16.9,32.9,32.9,3.5,12.3,2.1,25.3-4.1,36.5s-16.4,19.4-28.8,22.9c-4.4,1.3-8.9,1.9-13.3,1.9Z"/>
</svg>