<?xml version="1.0" encoding="UTF-8"?>
<svg id="Layer_1" xmlns="http://www.w3.org/2000/svg" version="1.1" viewBox="0 0 624.6 143">
  <!-- Generator: Adobe Illustrator 29.3.1, SVG Export Plug-In . SVG Version: 2.1.0 Build 151)  -->
  <defs>
    <style>
      .st0 {
        fill: #fff;
      }

      .st1 {
        fill: #f99f2a;
      }
    </style>
  </defs>
  <rect class="st0" x="391.3" y="29.7" width="22.4" height="70.2"/>
  <polygon class="st0" points="548 46.6 548 29.7 519.9 29.7 519.9 29.7 497.5 29.7 497.5 29.7 497.5 46.6 497.5 56.4 497.5 73.2 497.5 83.1 497.5 99.9 497.5 99.9 548 99.9 548 83.1 519.9 83.1 519.9 73.2 532.6 73.2 532.6 56.4 519.9 56.4 519.9 46.6 548 46.6"/>
  <polygon class="st0" points="70.2 29.7 46.3 29.7 23.9 29.7 0 29.7 0 52.1 23.9 52.1 23.9 99.9 46.3 99.9 46.3 52.1 70.2 52.1 70.2 29.7"/>
  <polygon class="st0" points="468.4 29.7 468.4 64.8 443.1 29.7 420.7 29.7 420.7 99.9 443.1 99.9 443.1 65.6 468.4 99.9 490.8 99.9 490.8 29.7 468.4 29.7"/>
  <polygon class="st0" points="602.2 29.7 602.2 64.8 576.8 29.7 554.4 29.7 554.4 99.9 576.8 99.9 576.8 65.6 602.2 99.9 624.6 99.9 624.6 29.7 602.2 29.7"/>
  <polygon class="st0" points="135.9 99.9 111.7 30.5 112 29.7 111.4 29.7 89.6 29.7 89 29.7 89.3 30.5 65.2 99.9 87.6 99.9 100.5 62.7 113.5 99.9 135.9 99.9"/>
  <polygon class="st0" points="260.9 99.9 236.7 30.5 237 29.7 236.5 29.7 214.6 29.7 214.1 29.7 214.3 30.5 201.1 68.7 187.8 30.5 188 29.7 187.5 29.7 165.6 29.7 165.1 29.7 165.4 30.5 141.2 99.9 163.6 99.9 176.6 62.7 189.5 99.9 190.2 99.9 211.9 99.9 212.6 99.9 225.5 62.7 238.5 99.9 260.9 99.9"/>
  <polygon class="st0" points="385.4 99.9 361.2 30.5 361.5 29.7 361 29.7 339.1 29.7 338.6 29.7 338.8 30.5 325.5 68.7 312.3 30.5 312.5 29.7 312 29.7 290.1 29.7 289.6 29.7 289.9 30.5 265.7 99.9 288.1 99.9 301.1 62.7 314 99.9 314.7 99.9 336.4 99.9 337.1 99.9 350 62.7 363 99.9 385.4 99.9"/>
  <path class="st1" d="M35.1,0h0C41.3,0,46.3,5,46.3,11.2h0c0,6.2-5,11.2-11.2,11.2h0c-6.2,0-11.2-5-11.2-11.2h0C23.9,5,28.9,0,35.1,0Z"/>
  <path class="st0" d="M182.1,133.5l-1.1,2.1v7.1h-3.6v-23.2h3.6v10.1l4.8-10.1h3.6l-5.1,10.4,5.1,12.9h-3.8l-3.6-9.3Z"/>
  <path class="st0" d="M208.5,125.1c0-3.7,2-5.8,5.5-5.8s5.5,2.1,5.5,5.8v12.1c0,3.7-2,5.8-5.5,5.8s-5.5-2.1-5.5-5.8v-12.1ZM212.1,137.4c0,1.7.7,2.3,1.9,2.3s1.9-.6,1.9-2.3v-12.5c0-1.7-.7-2.3-1.9-2.3s-1.9.6-1.9,2.3v12.5Z"/>
  <path class="st0" d="M243.1,125.9v16.8h-3.3v-23.2h4.6l3.8,13.9v-13.9h3.3v23.2h-3.8l-4.5-16.8Z"/>
  <path class="st0" d="M276.8,119.2c3.6,0,5.4,2.1,5.4,5.8v.7h-3.5v-1c0-1.7-.7-2.3-1.8-2.3s-1.8.6-1.8,2.3c0,4.8,7.1,5.7,7.1,12.3s-1.9,5.8-5.4,5.8-5.4-2.1-5.4-5.8v-1.4h3.5v1.7c0,1.7.7,2.3,1.9,2.3s1.9-.6,1.9-2.3c0-4.8-7.1-5.7-7.1-12.3,0-3.7,1.8-5.8,5.4-5.8Z"/>
  <path class="st0" d="M305.7,119.5v17.9c0,1.7.7,2.3,1.9,2.3s1.9-.6,1.9-2.3v-17.9h3.5v17.7c0,3.7-1.9,5.8-5.4,5.8s-5.4-2.1-5.4-5.8v-17.7h3.6Z"/>
  <path class="st0" d="M333.4,119.5h3.6v19.9h6v3.3h-9.7v-23.2Z"/>
  <path class="st0" d="M359.8,119.5h11.3v3.3h-3.8v19.9h-3.7v-19.9h-3.8v-3.3Z"/>
  <path class="st0" d="M425.5,142.7h-3.7l-.6-4.2h-4.5l-.6,4.2h-3.4l3.7-23.2h5.3l3.7,23.2ZM417.2,135.4h3.5l-1.8-11.7-1.8,11.7Z"/>
  <path class="st0" d="M456,124.9v.8c0,2.4-.7,3.9-2.4,4.7,2,.8,2.7,2.5,2.7,5v1.9c0,3.6-1.9,5.5-5.5,5.5h-5.7v-23.2h5.5c3.8,0,5.4,1.8,5.4,5.3ZM448.7,122.8v6.1h1.4c1.4,0,2.2-.6,2.2-2.5v-1.3c0-1.7-.6-2.4-1.9-2.4h-1.8ZM448.7,132.3v7.1h2.1c1.2,0,1.9-.6,1.9-2.3v-2c0-2.2-.7-2.8-2.4-2.8h-1.6Z"/>
</svg>